<mxfile host="app.diagrams.net" modified="2023-12-11T10:23:16.638Z" agent="Mozilla/5.0 (Windows NT 10.0; Win64; x64) AppleWebKit/537.36 (KHTML, like Gecko) Chrome/119.0.0.0 Safari/537.36" version="22.1.7" etag="VUCGdwo5WPmBhZQYnNmc" type="device">
  <diagram id="O46kLerx8mEtK5FH54NB" name="Страница — 1">
    <mxGraphModel dx="1050" dy="1831" grid="1" gridSize="10" guides="1" tooltips="1" connect="1" arrows="1" fold="1" page="1" pageScale="1" pageWidth="827" pageHeight="1169" math="0" shadow="0">
      <root>
        <mxCell id="0" />
        <mxCell id="1" parent="0" />
        <mxCell id="adBTsPPjGSuqoPxLkiV_-2" style="edgeStyle=orthogonalEdgeStyle;rounded=0;orthogonalLoop=1;jettySize=auto;html=1;" edge="1" parent="1" source="adBTsPPjGSuqoPxLkiV_-3" target="adBTsPPjGSuqoPxLkiV_-6">
          <mxGeometry relative="1" as="geometry" />
        </mxCell>
        <mxCell id="adBTsPPjGSuqoPxLkiV_-3" value="Начало" style="ellipse;whiteSpace=wrap;html=1;" vertex="1" parent="1">
          <mxGeometry x="354" y="-1169" width="120" height="39" as="geometry" />
        </mxCell>
        <mxCell id="adBTsPPjGSuqoPxLkiV_-4" value="True" style="edgeLabel;html=1;align=center;verticalAlign=middle;resizable=0;points=[];" vertex="1" connectable="0" parent="1">
          <mxGeometry x="411.5" y="-993" as="geometry" />
        </mxCell>
        <mxCell id="adBTsPPjGSuqoPxLkiV_-5" value="False" style="edgeLabel;html=1;align=center;verticalAlign=middle;resizable=0;points=[];" vertex="1" connectable="0" parent="1">
          <mxGeometry x="483" y="-1057" as="geometry" />
        </mxCell>
        <mxCell id="adBTsPPjGSuqoPxLkiV_-8" style="edgeStyle=orthogonalEdgeStyle;rounded=0;orthogonalLoop=1;jettySize=auto;html=1;entryX=0.5;entryY=0;entryDx=0;entryDy=0;" edge="1" parent="1" source="adBTsPPjGSuqoPxLkiV_-6" target="adBTsPPjGSuqoPxLkiV_-7">
          <mxGeometry relative="1" as="geometry" />
        </mxCell>
        <mxCell id="adBTsPPjGSuqoPxLkiV_-49" style="edgeStyle=orthogonalEdgeStyle;rounded=0;orthogonalLoop=1;jettySize=auto;html=1;exitX=1;exitY=0.5;exitDx=0;exitDy=0;" edge="1" parent="1" source="adBTsPPjGSuqoPxLkiV_-6">
          <mxGeometry relative="1" as="geometry">
            <mxPoint x="413.5" y="-180" as="targetPoint" />
            <Array as="points">
              <mxPoint x="530" y="-1055" />
              <mxPoint x="530" y="-200" />
              <mxPoint x="414" y="-200" />
            </Array>
          </mxGeometry>
        </mxCell>
        <mxCell id="adBTsPPjGSuqoPxLkiV_-6" value="&amp;nbsp;&#39;_&#39; &amp;lt; введенное число" style="rhombus;whiteSpace=wrap;html=1;" vertex="1" parent="1">
          <mxGeometry x="358" y="-1105" width="111" height="100" as="geometry" />
        </mxCell>
        <mxCell id="adBTsPPjGSuqoPxLkiV_-10" style="edgeStyle=orthogonalEdgeStyle;rounded=0;orthogonalLoop=1;jettySize=auto;html=1;" edge="1" parent="1" source="adBTsPPjGSuqoPxLkiV_-7">
          <mxGeometry relative="1" as="geometry">
            <mxPoint x="414" y="-840" as="targetPoint" />
          </mxGeometry>
        </mxCell>
        <mxCell id="adBTsPPjGSuqoPxLkiV_-7" value="ввод n (кол-во элементов в массиве)&lt;br&gt;ввод a (массив)&lt;br&gt;A = 2*(сумму всех элементов массива а)/n&lt;br&gt;создаем словарь словарь d&lt;br&gt;ans = 0&lt;br&gt;i=0" style="rounded=0;whiteSpace=wrap;html=1;" vertex="1" parent="1">
          <mxGeometry x="319" y="-980" width="190" height="110" as="geometry" />
        </mxCell>
        <mxCell id="adBTsPPjGSuqoPxLkiV_-11" style="edgeStyle=orthogonalEdgeStyle;rounded=0;orthogonalLoop=1;jettySize=auto;html=1;" edge="1" parent="1" source="adBTsPPjGSuqoPxLkiV_-9">
          <mxGeometry relative="1" as="geometry">
            <mxPoint x="414" y="-730" as="targetPoint" />
          </mxGeometry>
        </mxCell>
        <mxCell id="adBTsPPjGSuqoPxLkiV_-19" value="True" style="edgeLabel;html=1;align=center;verticalAlign=middle;resizable=0;points=[];" vertex="1" connectable="0" parent="adBTsPPjGSuqoPxLkiV_-11">
          <mxGeometry x="-0.3576" y="-3" relative="1" as="geometry">
            <mxPoint x="-1" y="2" as="offset" />
          </mxGeometry>
        </mxCell>
        <mxCell id="adBTsPPjGSuqoPxLkiV_-46" style="edgeStyle=orthogonalEdgeStyle;rounded=0;orthogonalLoop=1;jettySize=auto;html=1;entryX=0.5;entryY=0;entryDx=0;entryDy=0;exitX=1;exitY=0.5;exitDx=0;exitDy=0;" edge="1" parent="1" source="adBTsPPjGSuqoPxLkiV_-9" target="adBTsPPjGSuqoPxLkiV_-39">
          <mxGeometry relative="1" as="geometry">
            <Array as="points">
              <mxPoint x="490" y="-800" />
              <mxPoint x="490" y="-350" />
              <mxPoint x="409" y="-350" />
            </Array>
          </mxGeometry>
        </mxCell>
        <mxCell id="adBTsPPjGSuqoPxLkiV_-47" value="False" style="edgeLabel;html=1;align=center;verticalAlign=middle;resizable=0;points=[];" vertex="1" connectable="0" parent="adBTsPPjGSuqoPxLkiV_-46">
          <mxGeometry x="-0.9564" y="1" relative="1" as="geometry">
            <mxPoint as="offset" />
          </mxGeometry>
        </mxCell>
        <mxCell id="adBTsPPjGSuqoPxLkiV_-9" value="i&amp;lt;=len(a)" style="rhombus;whiteSpace=wrap;html=1;" vertex="1" parent="1">
          <mxGeometry x="374" y="-840" width="80" height="80" as="geometry" />
        </mxCell>
        <mxCell id="adBTsPPjGSuqoPxLkiV_-13" style="edgeStyle=orthogonalEdgeStyle;rounded=0;orthogonalLoop=1;jettySize=auto;html=1;" edge="1" parent="1" source="adBTsPPjGSuqoPxLkiV_-12">
          <mxGeometry relative="1" as="geometry">
            <mxPoint x="414" y="-620" as="targetPoint" />
          </mxGeometry>
        </mxCell>
        <mxCell id="adBTsPPjGSuqoPxLkiV_-20" value="True" style="edgeLabel;html=1;align=center;verticalAlign=middle;resizable=0;points=[];" vertex="1" connectable="0" parent="adBTsPPjGSuqoPxLkiV_-13">
          <mxGeometry x="-0.4887" y="-2" relative="1" as="geometry">
            <mxPoint x="-1" y="2" as="offset" />
          </mxGeometry>
        </mxCell>
        <mxCell id="adBTsPPjGSuqoPxLkiV_-21" style="edgeStyle=orthogonalEdgeStyle;rounded=0;orthogonalLoop=1;jettySize=auto;html=1;entryX=0.5;entryY=0;entryDx=0;entryDy=0;exitX=1;exitY=0.5;exitDx=0;exitDy=0;" edge="1" parent="1" source="adBTsPPjGSuqoPxLkiV_-12" target="adBTsPPjGSuqoPxLkiV_-15">
          <mxGeometry relative="1" as="geometry">
            <Array as="points">
              <mxPoint x="474" y="-690" />
              <mxPoint x="474" y="-580" />
              <mxPoint x="409" y="-580" />
            </Array>
          </mxGeometry>
        </mxCell>
        <mxCell id="adBTsPPjGSuqoPxLkiV_-22" value="False" style="edgeLabel;html=1;align=center;verticalAlign=middle;resizable=0;points=[];" vertex="1" connectable="0" parent="adBTsPPjGSuqoPxLkiV_-21">
          <mxGeometry x="-0.8946" y="1" relative="1" as="geometry">
            <mxPoint as="offset" />
          </mxGeometry>
        </mxCell>
        <mxCell id="adBTsPPjGSuqoPxLkiV_-12" value="A-a[i] в словаре d" style="rhombus;whiteSpace=wrap;html=1;" vertex="1" parent="1">
          <mxGeometry x="374" y="-730" width="80" height="80" as="geometry" />
        </mxCell>
        <mxCell id="adBTsPPjGSuqoPxLkiV_-16" style="edgeStyle=orthogonalEdgeStyle;rounded=0;orthogonalLoop=1;jettySize=auto;html=1;entryX=0.5;entryY=0;entryDx=0;entryDy=0;" edge="1" parent="1" source="adBTsPPjGSuqoPxLkiV_-14" target="adBTsPPjGSuqoPxLkiV_-15">
          <mxGeometry relative="1" as="geometry" />
        </mxCell>
        <mxCell id="adBTsPPjGSuqoPxLkiV_-14" value="ans +=d[A-a[i]]" style="rounded=0;whiteSpace=wrap;html=1;" vertex="1" parent="1">
          <mxGeometry x="358" y="-620" width="102" height="30" as="geometry" />
        </mxCell>
        <mxCell id="adBTsPPjGSuqoPxLkiV_-18" style="edgeStyle=orthogonalEdgeStyle;rounded=0;orthogonalLoop=1;jettySize=auto;html=1;" edge="1" parent="1" source="adBTsPPjGSuqoPxLkiV_-15" target="adBTsPPjGSuqoPxLkiV_-17">
          <mxGeometry relative="1" as="geometry" />
        </mxCell>
        <mxCell id="adBTsPPjGSuqoPxLkiV_-27" value="True" style="edgeLabel;html=1;align=center;verticalAlign=middle;resizable=0;points=[];" vertex="1" connectable="0" parent="adBTsPPjGSuqoPxLkiV_-18">
          <mxGeometry x="0.5267" y="1" relative="1" as="geometry">
            <mxPoint as="offset" />
          </mxGeometry>
        </mxCell>
        <mxCell id="adBTsPPjGSuqoPxLkiV_-28" style="edgeStyle=orthogonalEdgeStyle;rounded=0;orthogonalLoop=1;jettySize=auto;html=1;entryX=0.5;entryY=0;entryDx=0;entryDy=0;exitX=1;exitY=0.5;exitDx=0;exitDy=0;" edge="1" parent="1" source="adBTsPPjGSuqoPxLkiV_-15" target="adBTsPPjGSuqoPxLkiV_-23">
          <mxGeometry relative="1" as="geometry">
            <Array as="points">
              <mxPoint x="480" y="-530" />
              <mxPoint x="480" y="-430" />
              <mxPoint x="409" y="-430" />
            </Array>
          </mxGeometry>
        </mxCell>
        <mxCell id="adBTsPPjGSuqoPxLkiV_-29" value="False" style="edgeLabel;html=1;align=center;verticalAlign=middle;resizable=0;points=[];" vertex="1" connectable="0" parent="adBTsPPjGSuqoPxLkiV_-28">
          <mxGeometry x="-0.902" y="2" relative="1" as="geometry">
            <mxPoint as="offset" />
          </mxGeometry>
        </mxCell>
        <mxCell id="adBTsPPjGSuqoPxLkiV_-15" value="a[i] не в словаре d" style="rhombus;whiteSpace=wrap;html=1;" vertex="1" parent="1">
          <mxGeometry x="369" y="-570" width="80" height="80" as="geometry" />
        </mxCell>
        <mxCell id="adBTsPPjGSuqoPxLkiV_-25" style="edgeStyle=orthogonalEdgeStyle;rounded=0;orthogonalLoop=1;jettySize=auto;html=1;entryX=0.5;entryY=0;entryDx=0;entryDy=0;" edge="1" parent="1" source="adBTsPPjGSuqoPxLkiV_-17" target="adBTsPPjGSuqoPxLkiV_-23">
          <mxGeometry relative="1" as="geometry">
            <mxPoint x="409" y="-420" as="targetPoint" />
          </mxGeometry>
        </mxCell>
        <mxCell id="adBTsPPjGSuqoPxLkiV_-17" value="d[a[i]]=0" style="rounded=0;whiteSpace=wrap;html=1;" vertex="1" parent="1">
          <mxGeometry x="349" y="-470" width="120" height="30" as="geometry" />
        </mxCell>
        <mxCell id="adBTsPPjGSuqoPxLkiV_-36" style="edgeStyle=orthogonalEdgeStyle;rounded=0;orthogonalLoop=1;jettySize=auto;html=1;entryX=0.5;entryY=0;entryDx=0;entryDy=0;exitX=0.5;exitY=1;exitDx=0;exitDy=0;" edge="1" parent="1" source="adBTsPPjGSuqoPxLkiV_-23" target="adBTsPPjGSuqoPxLkiV_-9">
          <mxGeometry relative="1" as="geometry">
            <Array as="points">
              <mxPoint x="409" y="-360" />
              <mxPoint x="340" y="-360" />
              <mxPoint x="340" y="-860" />
              <mxPoint x="414" y="-860" />
            </Array>
          </mxGeometry>
        </mxCell>
        <mxCell id="adBTsPPjGSuqoPxLkiV_-23" value="d[a[i]]=0&lt;br&gt;i+=1" style="rounded=0;whiteSpace=wrap;html=1;" vertex="1" parent="1">
          <mxGeometry x="349" y="-410" width="120" height="30" as="geometry" />
        </mxCell>
        <mxCell id="adBTsPPjGSuqoPxLkiV_-42" style="edgeStyle=orthogonalEdgeStyle;rounded=0;orthogonalLoop=1;jettySize=auto;html=1;" edge="1" parent="1" source="adBTsPPjGSuqoPxLkiV_-39" target="adBTsPPjGSuqoPxLkiV_-43">
          <mxGeometry relative="1" as="geometry">
            <mxPoint x="409" y="-244" as="targetPoint" />
          </mxGeometry>
        </mxCell>
        <mxCell id="adBTsPPjGSuqoPxLkiV_-39" value="вывод ans" style="shape=parallelogram;perimeter=parallelogramPerimeter;whiteSpace=wrap;html=1;fixedSize=1;" vertex="1" parent="1">
          <mxGeometry x="349" y="-330" width="120" height="50" as="geometry" />
        </mxCell>
        <mxCell id="adBTsPPjGSuqoPxLkiV_-48" style="edgeStyle=orthogonalEdgeStyle;rounded=0;orthogonalLoop=1;jettySize=auto;html=1;entryX=0.5;entryY=0;entryDx=0;entryDy=0;exitX=0.5;exitY=1;exitDx=0;exitDy=0;" edge="1" parent="1" source="adBTsPPjGSuqoPxLkiV_-43" target="adBTsPPjGSuqoPxLkiV_-6">
          <mxGeometry relative="1" as="geometry">
            <Array as="points">
              <mxPoint x="409" y="-214" />
              <mxPoint x="300" y="-214" />
              <mxPoint x="300" y="-1120" />
              <mxPoint x="414" y="-1120" />
            </Array>
          </mxGeometry>
        </mxCell>
        <mxCell id="adBTsPPjGSuqoPxLkiV_-43" value="_ += 1" style="rounded=0;whiteSpace=wrap;html=1;" vertex="1" parent="1">
          <mxGeometry x="349" y="-264" width="120" height="30" as="geometry" />
        </mxCell>
        <mxCell id="adBTsPPjGSuqoPxLkiV_-50" value="Конец" style="ellipse;whiteSpace=wrap;html=1;" vertex="1" parent="1">
          <mxGeometry x="354" y="-180" width="120" height="39" as="geometry" />
        </mxCell>
      </root>
    </mxGraphModel>
  </diagram>
</mxfile>
